<?xml version="1.0" encoding="UTF-8"?>
<!DOCTYPE svg PUBLIC "-//W3C//DTD SVG 1.1//EN" "http://www.w3.org/Graphics/SVG/1.1/DTD/svg11.dtd">
<svg xmlns="http://www.w3.org/2000/svg" version="1.1" width="48px" height="48px" style="shape-rendering:geometricPrecision; text-rendering:geometricPrecision; image-rendering:optimizeQuality; fill-rule:evenodd; clip-rule:evenodd" xmlns:xlink="http://www.w3.org/1999/xlink">
<g><path style="opacity:0.949" fill="#000000" d="M -0.5,7.5 C 9.83871,7.33351 20.172,7.50017 30.5,8C 31.8138,15.7749 31.8138,23.6083 30.5,31.5C 29.6691,24.8581 29.1691,18.1915 29,11.5C 28.5,11 28,10.5 27.5,10C 18.1726,9.50021 8.83928,9.33355 -0.5,9.5C -0.5,8.83333 -0.5,8.16667 -0.5,7.5 Z"/></g>
<g><path style="opacity:0.977" fill="#000000" d="M -0.5,11.5 C 27.5,12.1667 27.5,12.8333 -0.5,13.5C -0.5,12.8333 -0.5,12.1667 -0.5,11.5 Z"/></g>
<g><path style="opacity:0.788" fill="#000000" d="M 33.5,13.5 C 36.1873,13.3359 38.854,13.5026 41.5,14C 46.2315,20.038 47.7315,26.8713 46,34.5C 44.6439,35.3802 43.1439,35.7135 41.5,35.5C 42.2652,42.3034 39.4319,44.3034 33,41.5C 32.5045,39.5273 32.3379,37.5273 32.5,35.5C 26.8333,35.5 21.1667,35.5 15.5,35.5C 16.2652,42.3034 13.4319,44.3034 7,41.5C 6.50454,39.5273 6.33788,37.5273 6.5,35.5C 4.85613,35.7135 3.35613,35.3802 2,34.5C 1.17473,30.7887 1.3414,27.122 2.5,23.5C 2.97469,26.9257 3.97469,30.0924 5.5,33C 17.8333,33.6667 30.1667,33.6667 42.5,33C 44.2785,30.8646 44.9452,28.3646 44.5,25.5C 40.774,25.8226 37.1073,25.4892 33.5,24.5C 36.5,23.8333 39.5,23.1667 42.5,22.5C 41.6667,20.8333 40.8333,19.1667 40,17.5C 37.4348,16.5296 35.2681,15.1963 33.5,13.5 Z M 9.5,36.5 C 10.5,36.5 11.5,36.5 12.5,36.5C 12.5,37.5 12.5,38.5 12.5,39.5C 11.5,39.5 10.5,39.5 9.5,39.5C 9.5,38.5 9.5,37.5 9.5,36.5 Z M 35.5,36.5 C 36.5,36.5 37.5,36.5 38.5,36.5C 38.5,37.5 38.5,38.5 38.5,39.5C 37.5,39.5 36.5,39.5 35.5,39.5C 35.5,38.5 35.5,37.5 35.5,36.5 Z"/></g>
<g><path style="opacity:0.966" fill="#000000" d="M -0.5,15.5 C 18.1667,16.1667 18.1667,16.8333 -0.5,17.5C -0.5,16.8333 -0.5,16.1667 -0.5,15.5 Z"/></g>
<g><path style="opacity:0.932" fill="#000000" d="M -0.5,19.5 C 8.83333,20.1667 8.83333,20.8333 -0.5,21.5C -0.5,20.8333 -0.5,20.1667 -0.5,19.5 Z"/></g>
</svg>
