<?xml version="1.0" encoding="UTF-8"?>
<!DOCTYPE svg PUBLIC "-//W3C//DTD SVG 1.1//EN" "http://www.w3.org/Graphics/SVG/1.1/DTD/svg11.dtd">
<svg xmlns="http://www.w3.org/2000/svg" version="1.1" width="48px" height="48px" style="shape-rendering:geometricPrecision; text-rendering:geometricPrecision; image-rendering:optimizeQuality; fill-rule:evenodd; clip-rule:evenodd" xmlns:xlink="http://www.w3.org/1999/xlink">
<g><path style="opacity:0.954" fill="#000000" d="M 3.5,8.5 C 16.8375,8.33344 30.1708,8.5001 43.5,9C 44.6509,18.4223 44.8176,27.9223 44,37.5C 30.5752,38.6557 17.0752,38.8223 3.5,38C 2.17856,28.1668 2.17856,18.3334 3.5,8.5 Z M 6.5,10.5 C 17.8382,10.3335 29.1716,10.5001 40.5,11C 41.3567,11.6891 42.0233,12.5224 42.5,13.5C -5.48153,15.1651 -5.48153,16.1651 42.5,16.5C 42.5,17.5 42.5,18.5 42.5,19.5C -5.5,20.1667 -5.5,20.8333 42.5,21.5C 42.6657,25.8461 42.499,30.1794 42,34.5C 41.5,35 41,35.5 40.5,36C 29.1667,36.6667 17.8333,36.6667 6.5,36C 6,35.5 5.5,35 5,34.5C 4.33333,27.1667 4.33333,19.8333 5,12.5C 5.71719,11.9558 6.21719,11.2891 6.5,10.5 Z"/></g>
<g><path style="opacity:0.953" fill="#000000" d="M 28.5,31.5 C 31.8984,31.1796 35.2317,31.513 38.5,32.5C 36.8333,32.8333 35.1667,33.1667 33.5,33.5C 31.3603,33.4439 29.6936,32.7773 28.5,31.5 Z"/></g>
</svg>
