<?xml version="1.0" encoding="UTF-8"?>
<!DOCTYPE svg PUBLIC "-//W3C//DTD SVG 1.1//EN" "http://www.w3.org/Graphics/SVG/1.1/DTD/svg11.dtd">
<svg xmlns="http://www.w3.org/2000/svg" version="1.1" width="48px" height="48px" style="shape-rendering:geometricPrecision; text-rendering:geometricPrecision; image-rendering:optimizeQuality; fill-rule:evenodd; clip-rule:evenodd" xmlns:xlink="http://www.w3.org/1999/xlink">
<g><path style="opacity:0.827" fill="#000000" d="M 47.5,12.5 C 47.5,15.1667 47.5,17.8333 47.5,20.5C 31.5,20.5 15.5,20.5 -0.5,20.5C -0.5,17.8333 -0.5,15.1667 -0.5,12.5C 3.18174,12.6653 6.84841,12.4986 10.5,12C 14.2026,8.63251 17.536,4.96584 20.5,1C 23.3471,0.0561092 25.8471,0.556109 28,2.5C 30.2954,5.79737 32.962,8.79737 36,11.5C 36.4828,12.448 36.6495,13.448 36.5,14.5C 29.8002,14.83 23.1335,14.4967 16.5,13.5C 21.4671,12.671 26.4671,12.171 31.5,12C 29.3547,8.68764 26.688,5.85431 23.5,3.5C 19.6468,6.51948 16.3135,10.0195 13.5,14C 9.83333,14.3333 6.16667,14.6667 2.5,15C 1.16667,16 1.16667,17 2.5,18C 16.5,18.6667 30.5,18.6667 44.5,18C 45.8333,17 45.8333,16 44.5,15C 42.4233,14.8078 40.4233,14.3078 38.5,13.5C 41.4281,12.5159 44.4281,12.1826 47.5,12.5 Z"/></g>
<g><path style="opacity:0.731" fill="#000000" d="M 2.5,22.5 C 3.82207,22.33 4.98873,22.6634 6,23.5C 6.53606,28.5204 7.70272,33.3537 9.5,38C 14.0555,39.1094 18.7222,39.6094 23.5,39.5C 28.2778,39.6094 32.9445,39.1094 37.5,38C 39.2973,33.3537 40.4639,28.5204 41,23.5C 42.1827,22.269 43.3493,22.269 44.5,23.5C 43.2273,28.7997 42.0606,34.133 41,39.5C 40.5,40 40,40.5 39.5,41C 28.8333,41.6667 18.1667,41.6667 7.5,41C 7,40.5 6.5,40 6,39.5C 4.8311,33.8159 3.66444,28.1492 2.5,22.5 Z"/></g>
<g><path style="opacity:0.965" fill="#000000" d="M 12.5,23.5 C 13.8001,25.223 14.4668,27.3897 14.5,30C 14.1667,32.1667 13.8333,34.3333 13.5,36.5C 12.5078,32.2172 12.1744,27.8839 12.5,23.5 Z"/></g>
<g><path style="opacity:0.965" fill="#000000" d="M 17.5,23.5 C 18.8001,25.223 19.4668,27.3897 19.5,30C 19.1667,32.1667 18.8333,34.3333 18.5,36.5C 17.5078,32.2172 17.1744,27.8839 17.5,23.5 Z"/></g>
<g><path style="opacity:0.965" fill="#000000" d="M 22.5,23.5 C 23.8001,25.223 24.4668,27.3897 24.5,30C 24.1667,32.1667 23.8333,34.3333 23.5,36.5C 22.5078,32.2172 22.1744,27.8839 22.5,23.5 Z"/></g>
<g><path style="opacity:0.965" fill="#000000" d="M 27.5,23.5 C 28.8001,25.223 29.4668,27.3897 29.5,30C 29.1667,32.1667 28.8333,34.3333 28.5,36.5C 27.5078,32.2172 27.1744,27.8839 27.5,23.5 Z"/></g>
<g><path style="opacity:0.965" fill="#000000" d="M 32.5,23.5 C 33.8001,25.223 34.4668,27.3897 34.5,30C 34.1667,32.1667 33.8333,34.3333 33.5,36.5C 32.5078,32.2172 32.1744,27.8839 32.5,23.5 Z"/></g>
</svg>
