<?xml version="1.0" encoding="UTF-8"?>
<!DOCTYPE svg PUBLIC "-//W3C//DTD SVG 1.1//EN" "http://www.w3.org/Graphics/SVG/1.1/DTD/svg11.dtd">
<svg xmlns="http://www.w3.org/2000/svg" version="1.1" width="48px" height="48px" style="shape-rendering:geometricPrecision; text-rendering:geometricPrecision; image-rendering:optimizeQuality; fill-rule:evenodd; clip-rule:evenodd" xmlns:xlink="http://www.w3.org/1999/xlink">
<g><path style="opacity:0.871" fill="#000000" d="M 13.5,3.5 C 17.1313,3.03229 20.4646,3.69896 23.5,5.5C 26.549,3.534 29.8823,3.034 33.5,4C 34.4231,6.04083 34.7564,8.2075 34.5,10.5C 38.1064,10.2108 41.6064,10.5442 45,11.5C 45.2213,16.22 45.7213,20.8867 46.5,25.5C 39.8333,26.8333 33.1667,26.8333 26.5,25.5C 32.1278,24.5046 37.7945,24.1712 43.5,24.5C 43.665,21.1501 43.4983,17.8168 43,14.5C 42.5,14 42,13.5 41.5,13C 36.4671,12.829 31.4671,12.329 26.5,11.5C 27.7357,10.6433 29.069,9.97665 30.5,9.5C 31.3857,8.67504 31.719,7.67504 31.5,6.5C 28.1922,5.97383 26.0255,7.30716 25,10.5C 24.8323,20.8494 24.3323,31.1827 23.5,41.5C 16.5496,40.7019 9.54961,40.2019 2.5,40C 1.20523,36.2136 1.20523,32.3803 2.5,28.5C 2.97469,31.9257 3.97469,35.0924 5.5,38C 11.1569,38.4994 16.8236,38.6661 22.5,38.5C 22.5,34.5 22.5,30.5 22.5,26.5C 15.1365,26.8306 7.80319,26.4973 0.5,25.5C 1.27865,20.8867 1.77865,16.22 2,11.5C 5.39364,10.5442 8.89364,10.2108 12.5,10.5C 12.298,8.05035 12.6314,5.71702 13.5,3.5 Z M 15.5,6.5 C 18.8078,5.97383 20.9745,7.30716 22,10.5C 22.4992,15.1548 22.6658,19.8215 22.5,24.5C 16.1667,24.5 9.83333,24.5 3.5,24.5C 3.33499,21.1501 3.50166,17.8168 4,14.5C 4.5,14 5,13.5 5.5,13C 10.5329,12.829 15.5329,12.329 20.5,11.5C 19.2643,10.6433 17.931,9.97665 16.5,9.5C 15.6143,8.67504 15.281,7.67504 15.5,6.5 Z"/></g>
<g><path style="opacity:0.908" fill="#000000" d="M 43.5,28.5 C 44.7868,29.8714 45.4535,31.7047 45.5,34C 45.4644,36.0937 45.1311,38.0937 44.5,40C 38.4724,40.8303 32.4724,40.6636 26.5,39.5C 31.4671,38.671 36.4671,38.171 41.5,38C 43.3398,35.1737 44.0065,32.0071 43.5,28.5 Z"/></g>
</svg>
